<?xml version="1.0" encoding="UTF-8" standalone="no"?>
<svg
   xmlns:dc="http://purl.org/dc/elements/1.1/"
   xmlns:cc="http://creativecommons.org/ns#"
   xmlns:rdf="http://www.w3.org/1999/02/22-rdf-syntax-ns#"
   xmlns:svg="http://www.w3.org/2000/svg"
   xmlns="http://www.w3.org/2000/svg"
   xmlns:sodipodi="http://sodipodi.sourceforge.net/DTD/sodipodi-0.dtd"
   xmlns:inkscape="http://www.inkscape.org/namespaces/inkscape"
   width="200"
   height="200"
   viewBox="0 0 200 200"
   version="1.1"
   id="svg29"
   sodipodi:docname="icon.svg"
   inkscape:export-filename="/usr/local/google/home/nsatragno/Development/chromium/virtual-authenticator-extension/assets/icon128.png"
   inkscape:export-xdpi="61.439999"
   inkscape:export-ydpi="61.439999"
   inkscape:version="0.92.4 (5da689c313, 2019-01-14)">
  <metadata
     id="metadata35">
    <rdf:RDF>
      <cc:Work
         rdf:about="">
        <dc:format>image/svg+xml</dc:format>
        <dc:type
           rdf:resource="http://purl.org/dc/dcmitype/StillImage" />
        <dc:title>il_usb</dc:title>
      </cc:Work>
    </rdf:RDF>
  </metadata>
  <defs
     id="defs33" />
  <sodipodi:namedview
     pagecolor="#ffffff"
     bordercolor="#666666"
     borderopacity="1"
     objecttolerance="10"
     gridtolerance="10"
     guidetolerance="10"
     inkscape:pageopacity="0"
     inkscape:pageshadow="2"
     inkscape:window-width="2560"
     inkscape:window-height="1405"
     id="namedview31"
     showgrid="false"
     inkscape:zoom="2.5178571"
     inkscape:cx="152.25205"
     inkscape:cy="85.818876"
     inkscape:window-x="2560"
     inkscape:window-y="0"
     inkscape:window-maximized="1"
     inkscape:current-layer="Device-/-USB" />
  <!-- Generator: Sketch 54 (76480) - https://sketchapp.com -->
  <title
     id="title2">il_usb</title>
  <desc
     id="desc4">Created with Sketch.</desc>
  <g
     id="_Assets"
     style="fill:none;fill-rule:evenodd;stroke:none;stroke-width:1"
     transform="translate(0,52)">
    <g
       id="illustration_left_light">
      <rect
         id="Rectangle-3"
         x="0"
         y="0"
         width="448"
         height="148" />
      <g
         id="ic_https_24px"
         transform="translate(187,33)"
         style="fill-rule:evenodd;stroke-width:1" />
      <g
         id="Device-/-USB"
         transform="matrix(1.7212801,0,0,1.7212801,15.962416,-46.68897)">
        <path
           d="M 51.354839,24.4 H 60 c 0.552285,0 1,0.447715 1,1 V 98 c 0,4.41828 -3.581722,8 -8,8 H 23 c -4.418278,0 -8,-3.58172 -8,-8 V 25.4 c 0,-0.552285 0.447715,-1 1,-1 h 8.645161 V 4 h 26.709678 z"
           id="Combined-Shape"
           inkscape:connector-curvature="0"
           style="fill:#ffffff;fill-rule:evenodd;stroke:#e8e9eb;stroke-width:1" />
        <path
           d="M 10,24.714183 C 10,21.558327 12.531462,19 15.654178,19 h 3.83025"
           id="Path"
           inkscape:connector-curvature="0"
           style="stroke:#e54440;stroke-width:1;stroke-linecap:round" />
        <path
           d="m 19,0 h 35.957446 v 20.244533 h 3.83025 c 3.122716,0 5.654178,2.558326 5.654178,5.714182 V 99.59004"
           id="path14"
           inkscape:connector-curvature="0"
           style="stroke:#bdc0c5;stroke-width:1;stroke-linecap:round" />
        <path
           d="M 53.617946,110.42837 H 21.308356 C 15.062924,110.42837 10,105.31171 10,99"
           id="path16"
           inkscape:connector-curvature="0"
           style="stroke:#bdc0c5;stroke-width:1;stroke-linecap:round" />
        <polygon
           id="Rectangle-11"
           points="29,8 40,8 40,24 29,24 "
           style="fill:#f0f0f0;fill-rule:evenodd" />
        <polygon
           id="Rectangle-11-Copy"
           points="43,8 48,8 48,24 43,24 "
           style="fill:#f0f0f0;fill-rule:evenodd" />
        <circle
           id="Oval-2"
           cx="39"
           cy="66"
           r="12"
           style="stroke:#bdc0c5;stroke-width:1" />
        <path
           d="M 9.5,33.5 V 71.513156"
           id="Line-2"
           inkscape:connector-curvature="0"
           style="stroke:#bdc0c5;stroke-width:1;stroke-linecap:round" />
        <path
           d="m 96.000513,46.5 c 0,11.8739 -9.6261,21.5 -21.5,21.5 C 62.6261,68 53,58.3739 53,46.5 53,34.6261 62.6261,25 74.500513,25 c 11.8739,0 21.5,9.6261 21.5,21.5"
           id="Fill-1-Copy"
           inkscape:connector-curvature="0"
           style="fill:#4285f4;fill-rule:evenodd" />
        <path
           d="m 76.901409,43.647887 v 3.098592 h 0.774647 v 1.549296 h -2.323943 v -6.197184 h 1.549296 L 74.577465,39 72.253521,42.098591 h 1.549296 v 6.197184 h -2.323944 v -1.603522 c 0.542254,-0.286619 0.929578,-0.836619 0.929578,-1.49507 0,-0.937324 -0.766902,-1.704225 -1.704226,-1.704225 -0.937324,0 -1.704225,0.766901 -1.704225,1.704225 0,0.658451 0.387324,1.208451 0.929577,1.49507 v 1.603522 c 0,0.859859 0.689437,1.549295 1.549296,1.549295 h 2.323944 v 2.362676 c -0.55,0.28662 -0.929578,0.852113 -0.929578,1.510564 0,0.94507 0.766902,1.704225 1.704226,1.704225 0.937324,0 1.704225,-0.759155 1.704225,-1.704225 0,-0.658451 -0.379577,-1.223944 -0.929577,-1.510564 V 49.84507 h 2.323943 c 0.85986,0 1.549296,-0.689436 1.549296,-1.549295 V 46.746479 H 80 v -3.098592 z"
           id="Shape"
           inkscape:connector-curvature="0"
           style="fill:#ffffff;fill-rule:nonzero;stroke:#4285f4;stroke-width:0.60000002" />
        <path
           d="M 61,63.23392 C 56.120592,59.292554 53,53.260623 53,46.5 53,39.739377 56.120592,33.707446 61,29.76608 Z"
           id="path24"
           inkscape:connector-curvature="0"
           style="fill:#336ac4;fill-rule:evenodd" />
      </g>
    </g>
  </g>
</svg>
